# xmcd CD database file
#
# Track frame offsets:
#	150
#	24879
#	39781
#	61656
#	94010
#	115414
#	138479
#	152973
#	177229
#	199201
#
# Disc length: 2911 seconds
#
# Revision: 0
# Processed by: cddbd v1.5.2PL0 Copyright (c) Steve Scherf et al.
# Submitted via: CDex 1.77
#
DISCID=7b0b5d0a
DTITLE=Stewart Curtis - I Can't Hear U When U Shout
DYEAR=2010
DGENRE=Jazz
TTITLE0=The last macaroon
TTITLE1=I can't hear u when you shout
TTITLE2=The cuban cucmber
TTITLE3=The bulgar bug
TTITLE4=Jerusalem of gold
TTITLE5=Thomas the tango engine
TTITLE6=Sabbath prayer
TTITLE7=Al kol ele
TTITLE8=Chicken stock 2009
TTITLE9=The dirty bagels
EXTD=YEAR: 2010
EXTT0=
EXTT1=
EXTT2=
EXTT3=
EXTT4=
EXTT5=
EXTT6=
EXTT7=
EXTT8=
EXTT9=
PLAYORDER=
